<svg xmlns="http://www.w3.org/2000/svg" viewBox="0 0 658 160" preserveAspectRatio="xMidYMid meet">
<circle fill="rgb(0, 171, 169)" cx="80" cy="80" r="70"/><svg fill="white" stroke-width="0" x="30" y="30"><path d="M50.00,1.00a17 17 0 1 0 0,34a17 17 0 1 0 0,-34v7a10 10 0 0 1 0,20a10 10 0 1 1 0,-20Z"/><path d="M24.63,27.23A27 27 0 0 0 75.37,27.23A3.5 3.5 20 1 1 81.95,29.63A34 34 0 0 1 18.05,29.63A3.5 3.5 -20 1 1 24.63,27.23Z"/><path d="M8.65,33.05A44 44 0 0 0 91.35,33.05A3.5 3.5 20 1 1 97.92,35.44A51 51 0 0 1 2.08,35.44A3.5 3.5 -20 1 1 8.65,33.05Z"/><circle cx="50.00" cy="89.00" r="10"/></svg>
<svg fill="rgb(0, 171, 169)" stroke="rgb(0, 171, 169)">
    <svg viewBox="0 0 756 1024" x="160" y="-3" width="75">
        <path d="M664.576 88.064v473.088q0 75.776-31.232 136.704t-95.744 96.256-162.816 35.328q-139.264 0-211.456-74.24t-72.192-196.096v-471.040h110.592v465.92q0 181.248 178.176 181.248 92.16 0 133.632-49.152t41.472-133.12v-464.896h109.568z"/>
    </svg>
    <svg viewBox="0 0 635 1024" x="235" y="-3" width="62.9960317460317">
        <path d="M360.448 257.024q100.352 0 160.768 71.68t60.416 214.016q0 140.288-61.44 213.504t-160.768 73.216q-62.464 0-102.4-23.040t-63.488-54.784h-7.168q2.048 18.432 4.608 43.52t2.56 44.544v225.28h-108.544v-797.696h88.064l15.36 73.728h5.12q23.552-34.816 62.976-59.392t103.936-24.576zM334.848 346.112q-76.8 0-108.544 44.032t-32.768 135.168v16.384q0 96.256 30.72 147.456t112.64 51.2q67.584 0 100.352-55.296t32.768-144.384q0-90.112-33.28-142.336t-101.888-52.224z"/>
    </svg>
    <svg viewBox="0 0 563 1024" x="297.996031746032" y="-3" width="55.8531746031746">
        <path d="M517.12 621.568q0 97.28-70.656 152.576t-193.536 55.296q-60.416 0-112.64-9.728t-89.088-28.16v-104.448q40.96 18.432 96.256 33.28t112.64 14.848q73.728 0 110.592-28.672t36.864-76.8q0-33.792-16.384-56.832t-52.736-43.008-94.72-42.496q-53.248-20.48-95.232-48.128t-65.536-68.608-23.552-100.352q0-90.112 65.536-141.312t172.032-51.2q59.392 0 110.080 12.288t96.768 31.744l-34.816 91.136q-41.984-17.408-85.504-28.672t-89.6-11.264q-60.416 0-92.16 26.624t-31.744 69.632q0 33.792 15.36 56.832t49.152 41.984 89.088 40.448q61.44 24.576 104.96 51.712t66.048 65.536 22.528 95.744z"/>
    </svg>
    <svg viewBox="0 0 279 1024" x="353.849206349207" y="-3" width="27.6785714285714">
        <path d="M140.288 57.344q24.576 0 43.008 14.336t18.432 48.128q0 32.768-18.432 47.616t-43.008 14.848q-25.6 0-44.032-14.848t-18.432-47.616q0-33.792 18.432-48.128t44.032-14.336zM193.536 267.264v551.936h-108.544v-551.936h108.544z"/>
    </svg>
    <svg viewBox="0 0 635 1024" x="381.527777777778" y="-3" width="62.9960317460317">
        <path d="M275.456 257.024q53.248 0 96.256 20.48t72.704 62.464h5.12l12.288-72.704h88.064v559.104q0 238.592-254.976 238.592-59.392 0-109.568-8.192t-92.16-25.6v-95.232q43.008 21.504 95.744 32.256t112.128 10.752q66.56 0 103.936-38.4t37.376-108.032v-18.432q0-13.312 1.024-34.816t2.048-32.768h-4.096q-28.672 43.008-70.144 62.976t-95.744 19.968q-104.448 0-163.328-75.264t-58.88-209.408q0-133.12 58.88-210.432t163.328-77.312zM297.984 347.136q-64.512 0-98.816 50.688t-34.304 147.968q0 96.256 34.304 146.432t100.864 50.176q75.776 0 111.104-41.472t35.328-135.68v-20.48q0-106.496-35.84-152.064t-112.64-45.568z"/>
    </svg>
    <svg viewBox="0 0 645 1024" x="444.52380952381" y="-3" width="63.9880952380952">
        <path d="M364.544 257.024q96.256 0 147.456 48.128t51.2 154.624v359.424h-107.52v-344.064q0-129.024-113.664-129.024-83.968 0-116.224 50.176t-32.256 144.384v278.528h-108.544v-551.936h86.016l15.36 73.728h6.144q26.624-43.008 73.216-63.488t98.816-20.48z"/>
    </svg>
    <svg viewBox="0 0 804 1024" x="508.511904761905" y="-3" width="79.7619047619048">
        <path d="M742.4 452.608q0 113.664-37.888 198.144t-113.664 131.584-188.416 47.104q-115.712 0-191.488-47.104t-112.64-132.096-36.864-198.656q0-112.64 36.864-197.12t112.64-131.072 192.512-46.592q112.64 0 187.904 46.592t113.152 131.072 37.888 198.144zM178.176 452.608q0 131.072 54.272 206.848t169.984 75.776q116.736 0 169.984-75.776t53.248-206.848-53.248-205.824-168.96-74.752q-116.736 0-171.008 74.752t-54.272 205.824z"/>
    </svg>
    <svg viewBox="0 0 645 1024" x="588.27380952381" y="-3" width="63.9880952380952">
        <path d="M364.544 257.024q96.256 0 147.456 48.128t51.2 154.624v359.424h-107.52v-344.064q0-129.024-113.664-129.024-83.968 0-116.224 50.176t-32.256 144.384v278.528h-108.544v-551.936h86.016l15.36 73.728h6.144q26.624-43.008 73.216-63.488t98.816-20.48z"/>
    </svg>
</svg>
</svg>
